<svg width="128" height="128" viewBox="0 0 128 128" xmlns="http://www.w3.org/2000/svg">
  <!-- Background gradient -->
  <defs>
    <linearGradient id="bgGradient" x1="0%" y1="0%" x2="100%" y2="100%">
      <stop offset="0%" style="stop-color:#3B82F6;stop-opacity:1" />
      <stop offset="100%" style="stop-color:#1E40AF;stop-opacity:1" />
    </linearGradient>
    <linearGradient id="brainGradient" x1="0%" y1="0%" x2="100%" y2="100%">
      <stop offset="0%" style="stop-color:#FFFFFF;stop-opacity:1" />
      <stop offset="100%" style="stop-color:#F3F4F6;stop-opacity:1" />
    </linearGradient>
  </defs>
  
  <!-- Background circle -->
  <circle cx="64" cy="64" r="60" fill="url(#bgGradient)" stroke="#1E40AF" stroke-width="2"/>
  
  <!-- Brain lobes -->
  <g fill="url(#brainGradient)" stroke="#E5E7EB" stroke-width="1">
    <!-- Left lobe -->
    <path d="M45 35 C35 35, 30 45, 30 55 C30 65, 35 75, 45 75 C50 75, 55 70, 55 65 C55 60, 50 55, 45 55 C40 55, 35 50, 35 45 C35 40, 40 35, 45 35 Z"/>
    
    <!-- Right lobe -->
    <path d="M83 35 C93 35, 98 45, 98 55 C98 65, 93 75, 83 75 C78 75, 73 70, 73 65 C73 60, 78 55, 83 55 C88 55, 93 50, 93 45 C93 40, 88 35, 83 35 Z"/>
    
    <!-- Center lobe -->
    <path d="M64 30 C74 30, 79 40, 79 50 C79 60, 74 70, 64 70 C54 70, 49 60, 49 50 C49 40, 54 30, 64 30 Z"/>
  </g>
  
  <!-- Neural connections -->
  <g stroke="#3B82F6" stroke-width="2" fill="none" opacity="0.8">
    <!-- Left connections -->
    <line x1="45" y1="45" x2="55" y2="55"/>
    <line x1="50" y1="50" x2="60" y2="60"/>
    <line x1="40" y1="60" x2="50" y2="70"/>
    
    <!-- Right connections -->
    <line x1="83" y1="45" x2="73" y2="55"/>
    <line x1="78" y1="50" x2="68" y2="60"/>
    <line x1="88" y1="60" x2="78" y2="70"/>
    
    <!-- Center connections -->
    <line x1="64" y1="40" x2="64" y2="60"/>
    <line x1="60" y1="50" x2="68" y2="50"/>
  </g>
  
  <!-- Neural nodes -->
  <g fill="#3B82F6">
    <circle cx="45" cy="45" r="2"/>
    <circle cx="55" cy="55" r="2"/>
    <circle cx="50" cy="50" r="2"/>
    <circle cx="40" cy="60" r="2"/>
    <circle cx="50" cy="70" r="2"/>
    <circle cx="83" cy="45" r="2"/>
    <circle cx="73" cy="55" r="2"/>
    <circle cx="78" cy="50" r="2"/>
    <circle cx="88" cy="60" r="2"/>
    <circle cx="78" cy="70" r="2"/>
    <circle cx="64" cy="40" r="2"/>
    <circle cx="64" cy="60" r="2"/>
    <circle cx="60" cy="50" r="2"/>
    <circle cx="68" cy="50" r="2"/>
  </g>
  
  <!-- Sparkle effects -->
  <g fill="#FFFFFF" opacity="0.9">
    <circle cx="25" cy="25" r="1"/>
    <circle cx="103" cy="25" r="1"/>
    <circle cx="25" cy="103" r="1"/>
    <circle cx="103" cy="103" r="1"/>
    <circle cx="64" cy="20" r="1"/>
    <circle cx="64" cy="108" r="1"/>
  </g>
</svg> 